<svg width="68" height="18" viewBox="0 0 68 18" fill="none" xmlns="http://www.w3.org/2000/svg">
<g clip-path="url(#clip0_1_1296)">
<path d="M48.2625 8.23047V9.78347H47.2939V10.8019H48.2625V14.2624C48.2625 15.444 48.7944 15.9167 50.1325 15.9167C50.3677 15.9167 50.5916 15.8886 50.7876 15.8548V14.8476C50.6197 14.8645 50.5132 14.8758 50.3284 14.8758C49.7294 14.8758 49.4663 14.5945 49.4663 13.9529V10.8019H50.7876V9.78347H49.4663V8.23047H48.2625Z" fill="#141719"/>
<path d="M54.1961 16.0011C55.9766 16.0011 57.0683 14.8026 57.0683 12.8164C57.0683 10.8413 55.9709 9.63721 54.1961 9.63721C52.4157 9.63721 51.3184 10.8413 51.3184 12.8164C51.3184 14.8026 52.4101 16.0011 54.1961 16.0011ZM54.1961 14.9264C53.1492 14.9264 52.5613 14.1556 52.5613 12.8164C52.5613 11.4884 53.1492 10.7119 54.1961 10.7119C55.2375 10.7119 55.831 11.4884 55.831 12.8164C55.831 14.1499 55.2375 14.9264 54.1961 14.9264Z" fill="#141719"/>
<path d="M58.0024 15.8829H59.2061V12.2649C59.2061 11.404 59.85 10.8244 60.7626 10.8244C60.9753 10.8244 61.3337 10.8638 61.4344 10.8976V9.70469C61.3057 9.67094 61.0761 9.65405 60.897 9.65405C60.1019 9.65405 59.4245 10.0929 59.251 10.695H59.1613V9.75533H58.0024V15.8829Z" fill="#141719"/>
<path d="M64.4237 10.6669C65.3138 10.6669 65.8961 11.2915 65.9241 12.2537H62.8448C62.9119 11.2971 63.5334 10.6669 64.4237 10.6669ZM65.9185 14.2287C65.6945 14.707 65.1963 14.9715 64.4684 14.9715C63.5054 14.9715 62.884 14.2906 62.8448 13.2159V13.1483H67.1502V12.7263C67.1502 10.802 66.1257 9.63721 64.4292 9.63721C62.7104 9.63721 61.6187 10.8807 61.6187 12.8389C61.6187 14.797 62.6881 16.0011 64.4348 16.0011C65.8289 16.0011 66.8031 15.3259 67.0775 14.2287H65.9185Z" fill="#141719"/>
<path d="M40.3687 13.6201C40.4615 15.1247 41.7092 16.087 43.5661 16.087C45.5508 16.087 46.7926 15.0781 46.7926 13.4685C46.7926 12.203 46.0846 11.5031 44.3669 11.1007L43.4443 10.8732C42.3533 10.6166 41.9123 10.2725 41.9123 9.67182C41.9123 8.91365 42.597 8.41793 43.6242 8.41793C44.5991 8.41793 45.2722 8.90198 45.3941 9.67764H46.6591C46.5836 8.26046 45.3418 7.26318 43.6416 7.26318C41.8137 7.26318 40.595 8.26046 40.595 9.75929C40.595 10.9957 41.2856 11.7306 42.8002 12.0863L43.8795 12.3487C44.9879 12.6112 45.4753 12.9961 45.4753 13.6377C45.4753 14.3841 44.7093 14.9265 43.6647 14.9265C42.5448 14.9265 41.7672 14.4191 41.6569 13.6201H40.3687Z" fill="#141719"/>
<path d="M27.8991 9.65405C27.0706 9.65405 26.3539 10.0704 25.9844 10.7682H25.8948V9.75533H24.7358V17.9199H25.9395V14.9545H26.0347C26.3539 15.6016 27.0425 15.9842 27.9104 15.9842C29.45 15.9842 30.4298 14.7632 30.4298 12.8164C30.4298 10.8694 29.45 9.65405 27.8991 9.65405ZM27.5576 14.8982C26.5498 14.8982 25.9171 14.0992 25.9171 12.822C25.9171 11.539 26.5498 10.74 27.5633 10.74C28.5822 10.74 29.1925 11.5222 29.1925 12.8164C29.1925 14.1161 28.5822 14.8982 27.5576 14.8982Z" fill="#141719"/>
<path d="M34.6418 9.65405C33.8131 9.65405 33.0966 10.0704 32.7271 10.7682H32.6375V9.75533H31.4785V17.9199H32.6822V14.9545H32.7774C33.0966 15.6016 33.7852 15.9842 34.6531 15.9842C36.1927 15.9842 37.1725 14.7632 37.1725 12.8164C37.1725 10.8694 36.1927 9.65405 34.6418 9.65405ZM34.3003 14.8982C33.2925 14.8982 32.6598 14.0992 32.6598 12.822C32.6598 11.539 33.2925 10.74 34.3059 10.74C35.3249 10.74 35.9352 11.5222 35.9352 12.8164C35.9352 14.1161 35.3249 14.8982 34.3003 14.8982Z" fill="#141719"/>
<path d="M22.5758 15.8829H23.957L20.9336 7.46729H19.5351L16.5117 15.8829H17.8464L18.6182 13.6492H21.8099L22.5758 15.8829ZM20.1676 8.99528H20.2663L21.4791 12.5528H18.949L20.1676 8.99528Z" fill="#141719"/>
<path d="M17.3193 1.11963V5.17939H18.7778C19.9815 5.17939 20.6785 4.43383 20.6785 3.13685C20.6785 1.85956 19.9759 1.11963 18.7778 1.11963H17.3193ZM17.9463 1.69356H18.7078C19.5448 1.69356 20.0403 2.22811 20.0403 3.14528C20.0403 4.07652 19.5532 4.60544 18.7078 4.60544H17.9463V1.69356Z" fill="#141719"/>
<path d="M22.8135 5.23861C23.7036 5.23861 24.2495 4.63935 24.2495 3.64622C24.2495 2.65871 23.7009 2.05664 22.8135 2.05664C21.9232 2.05664 21.3745 2.65871 21.3745 3.64622C21.3745 4.63935 21.9204 5.23861 22.8135 5.23861ZM22.8135 4.70125C22.29 4.70125 21.996 4.31581 21.996 3.64622C21.996 2.98225 22.29 2.594 22.8135 2.594C23.3341 2.594 23.6308 2.98225 23.6308 3.64622C23.6308 4.313 23.3341 4.70125 22.8135 4.70125Z" fill="#141719"/>
<path d="M28.8981 2.11572H28.2962L27.7532 4.45366H27.7056L27.0785 2.11572H26.5019L25.8748 4.45366H25.8299L25.2841 2.11572H24.6738L25.5136 5.17953H26.1323L26.7594 2.92317H26.807L27.4369 5.17953H28.0611L28.8981 2.11572Z" fill="#141719"/>
<path d="M29.5913 5.17953H30.1931V3.38738C30.1931 2.90911 30.4758 2.61088 30.921 2.61088C31.3661 2.61088 31.5788 2.85565 31.5788 3.34799V5.17953H32.1807V3.19608C32.1807 2.46739 31.8056 2.05664 31.1253 2.05664C30.6662 2.05664 30.3639 2.26202 30.2155 2.60244H30.1707V2.11573H29.5913V5.17953Z" fill="#141719"/>
<path d="M33.1284 5.17943H33.7303V0.919922H33.1284V5.17943Z" fill="#141719"/>
<path d="M35.9941 5.23861C36.8843 5.23861 37.4302 4.63935 37.4302 3.64622C37.4302 2.65871 36.8815 2.05664 35.9941 2.05664C35.104 2.05664 34.5552 2.65871 34.5552 3.64622C34.5552 4.63935 35.1011 5.23861 35.9941 5.23861ZM35.9941 4.70125C35.4706 4.70125 35.1767 4.31581 35.1767 3.64622C35.1767 2.98225 35.4706 2.594 35.9941 2.594C36.5149 2.594 36.8115 2.98225 36.8115 3.64622C36.8115 4.313 36.5149 4.70125 35.9941 4.70125Z" fill="#141719"/>
<path d="M39.2234 4.72094C38.8958 4.72094 38.6579 4.56058 38.6579 4.28486C38.6579 4.01477 38.8483 3.87129 39.2682 3.84316L40.0128 3.79533V4.05135C40.0128 4.43116 39.6768 4.72094 39.2234 4.72094ZM39.0694 5.23017C39.4697 5.23017 39.8028 5.05574 39.9848 4.74908H40.0323V5.17953H40.6118V3.08635C40.6118 2.43927 40.1808 2.05664 39.4165 2.05664C38.725 2.05664 38.2324 2.39425 38.1708 2.92036H38.7531C38.8202 2.70372 39.0526 2.57993 39.3886 2.57993C39.8001 2.57993 40.0128 2.76281 40.0128 3.08635V3.35081L39.187 3.39864C38.462 3.44365 38.0532 3.76157 38.0532 4.313C38.0532 4.87286 38.4815 5.23017 39.0694 5.23017Z" fill="#141719"/>
<path d="M42.6545 5.23007C43.0744 5.23007 43.4299 5.03032 43.6119 4.69553H43.6595V5.17943H44.2361V0.919922H43.6343V2.60234H43.5895C43.4244 2.26473 43.0716 2.06498 42.6545 2.06498C41.8847 2.06498 41.3892 2.67831 41.3892 3.64612C41.3892 4.61674 41.8791 5.23007 42.6545 5.23007ZM42.8252 2.60797C43.3292 2.60797 43.6455 3.01028 43.6455 3.64893C43.6455 4.2904 43.3319 4.68708 42.8252 4.68708C42.3158 4.68708 42.0106 4.29602 42.0106 3.64612C42.0106 3.00185 42.3186 2.60797 42.8252 2.60797Z" fill="#141719"/>
<path d="M48.1391 5.23861C49.0293 5.23861 49.5752 4.63935 49.5752 3.64622C49.5752 2.65871 49.0265 2.05664 48.1391 2.05664C47.2489 2.05664 46.7002 2.65871 46.7002 3.64622C46.7002 4.63935 47.2461 5.23861 48.1391 5.23861ZM48.1391 4.70125C47.6156 4.70125 47.3217 4.31581 47.3217 3.64622C47.3217 2.98225 47.6156 2.594 48.1391 2.594C48.6598 2.594 48.9565 2.98225 48.9565 3.64622C48.9565 4.313 48.6598 4.70125 48.1391 4.70125Z" fill="#141719"/>
<path d="M50.3716 5.17953H50.9735V3.38738C50.9735 2.90911 51.2562 2.61088 51.7013 2.61088C52.1464 2.61088 52.3592 2.85565 52.3592 3.34799V5.17953H52.961V3.19608C52.961 2.46739 52.5859 2.05664 51.9057 2.05664C51.4466 2.05664 51.1442 2.26202 50.9959 2.60244H50.9511V2.11573H50.3716V5.17953Z" fill="#141719"/>
<path d="M55.7334 1.35327V2.12977H55.249V2.639H55.7334V4.36925C55.7334 4.96007 55.9994 5.1964 56.6684 5.1964C56.7859 5.1964 56.8979 5.18233 56.9959 5.16545V4.66184C56.9119 4.67028 56.8587 4.67591 56.7664 4.67591C56.4669 4.67591 56.3352 4.53524 56.3352 4.21451V2.639H56.9959V2.12977H56.3352V1.35327H55.7334Z" fill="#141719"/>
<path d="M57.8037 5.17943H58.4056V3.3901C58.4056 2.92589 58.68 2.6136 59.1726 2.6136C59.5981 2.6136 59.8249 2.86117 59.8249 3.35071V5.17943H60.4267V3.2016C60.4267 2.47292 60.0265 2.05936 59.377 2.05936C58.9179 2.05936 58.5959 2.26473 58.4476 2.60797H58.4V0.919922H57.8037V5.17943Z" fill="#141719"/>
<path d="M62.5978 2.5715C63.0429 2.5715 63.334 2.88379 63.348 3.36488H61.8084C61.8419 2.88659 62.1527 2.5715 62.5978 2.5715ZM63.3453 4.35238C63.2333 4.59152 62.9841 4.72375 62.6202 4.72375C62.1387 4.72375 61.828 4.38334 61.8084 3.84597V3.81221H63.9611V3.60121C63.9611 2.63902 63.4489 2.05664 62.6007 2.05664C61.7412 2.05664 61.1953 2.67841 61.1953 3.65747C61.1953 4.63654 61.7301 5.23861 62.6034 5.23861C63.3004 5.23861 63.7876 4.901 63.9248 4.35238H63.3453Z" fill="#141719"/>
<path d="M9.98063 8.97609C9.99523 7.83659 10.6041 6.75838 11.5701 6.16155C10.9607 5.28688 9.94003 4.73232 8.8781 4.69892C7.74548 4.57945 6.64745 5.38007 6.07028 5.38007C5.48194 5.38007 4.59329 4.71079 3.63639 4.73058C2.38908 4.77108 1.22628 5.48377 0.619446 6.57971C-0.685016 8.84949 0.287995 12.1853 1.53755 14.02C2.16274 14.9185 2.8934 15.922 3.84946 15.8864C4.78501 15.8474 5.13442 15.2869 6.26372 15.2869C7.38254 15.2869 7.71036 15.8864 8.68581 15.8638C9.68971 15.8474 10.3222 14.9614 10.9255 14.0545C11.3747 13.4143 11.7203 12.7068 11.9496 11.9581C10.7698 11.4567 9.982 10.2634 9.98063 8.97609Z" fill="#141719"/>
<path d="M8.13829 3.4924C8.68566 2.83201 8.95532 1.9832 8.89002 1.12622C8.05377 1.21449 7.28131 1.61617 6.72655 2.25122C6.18407 2.87169 5.90176 3.70556 5.95513 4.52979C6.79168 4.53844 7.61409 4.14766 8.13829 3.4924Z" fill="#141719"/>
</g>
<defs>
<clipPath id="clip0_1_1296">
<rect width="68" height="17" fill="white" transform="translate(0 0.919922)"/>
</clipPath>
</defs>
</svg>
