<svg width="33" height="32" viewBox="0 0 33 32" fill="none" xmlns="http://www.w3.org/2000/svg">
<path d="M11.6916 15.016C12.5384 15.016 13.2249 14.3295 13.2249 13.4827C13.2249 12.6358 12.5384 11.9494 11.6916 11.9494C10.8447 11.9494 10.1582 12.6358 10.1582 13.4827C10.1582 14.3295 10.8447 15.016 11.6916 15.016Z" fill="#37506E"/>
<path d="M12.9454 22.3085C13.6081 22.3085 14.1454 21.7444 14.1454 21.0485C14.1454 20.3527 13.6081 19.7885 12.9454 19.7885C12.2826 19.7885 11.7454 20.3527 11.7454 21.0485C11.7454 21.7444 12.2826 22.3085 12.9454 22.3085Z" fill="#37506E"/>
<path d="M19.2374 20.2527C19.9738 20.2527 20.5707 19.6558 20.5707 18.9194C20.5707 18.183 19.9738 17.5861 19.2374 17.5861C18.501 17.5861 17.9041 18.183 17.9041 18.9194C17.9041 19.6558 18.501 20.2527 19.2374 20.2527Z" fill="#37506E"/>
<path fill-rule="evenodd" clip-rule="evenodd" d="M27.6839 22.4226C28.9163 20.1804 29.4751 17.6357 29.3018 15.0932C29.275 14.7003 28.8957 14.4401 28.5055 14.4932C25.2355 14.9381 23.8485 13.038 23.0915 12.0009C22.8189 11.6276 22.628 11.3661 22.4603 11.3661C18.3087 11.3661 13.7987 8.42922 15.0933 4.15232C15.2307 3.69844 14.9386 3.18255 14.4657 3.14817C13.3585 3.06769 12.0582 3.08417 10.1376 4.02425C7.61904 5.25701 5.55322 7.25246 4.23393 9.72683C2.91463 12.2012 2.40903 15.0285 2.78902 17.8068C3.169 20.585 4.41523 23.1727 6.35048 25.202C8.28574 27.2312 10.8115 28.5987 13.5686 29.1099C16.3257 29.6211 19.1738 29.25 21.7079 28.0494C24.242 26.8489 26.3331 24.8799 27.6839 22.4226ZM25.347 21.138C26.0251 19.9044 26.4483 18.5562 26.6013 17.1729C24.645 16.9497 23.2056 16.0584 22.1878 15.0625C21.7941 14.6773 21.4713 14.2833 21.23 13.9676C18.9784 13.7307 16.712 12.8517 15.002 11.3902C13.4708 10.0816 12.3387 8.2316 12.2101 6.04291C11.946 6.13251 11.6478 6.25402 11.31 6.41939C9.29511 7.4056 7.64245 9.00196 6.58701 10.9815C5.53158 12.9609 5.1271 15.2228 5.43109 17.4454C5.73507 19.668 6.73205 21.7382 8.28026 23.3616C9.82846 24.985 11.8491 26.0789 14.0548 26.4879C16.2605 26.8968 18.5389 26.6 20.5662 25.6395C22.5935 24.6791 24.2664 23.1039 25.347 21.138Z" fill="#37506E"/>
<path d="M29.3314 8.06132C29.3314 8.98179 28.5852 9.72799 27.6647 9.72799C26.7442 9.72799 25.998 8.98179 25.998 8.06132C25.998 7.14085 26.7442 6.39465 27.6647 6.39465C28.5852 6.39465 29.3314 7.14085 29.3314 8.06132Z" fill="#37506E"/>
<path d="M22.1027 5.71822C22.1027 6.4546 21.5342 7.05155 20.8328 7.05155C20.1315 7.05155 19.563 6.4546 19.563 5.71822C19.563 4.98184 20.1315 4.38489 20.8328 4.38489C21.5342 4.38489 22.1027 4.98184 22.1027 5.71822Z" fill="#37506E"/>
</svg>
