<svg width="25" height="25" viewBox="0 0 25 25" fill="none" xmlns="http://www.w3.org/2000/svg">
<path d="M12 8.74023C13.65 8.74023 15 7.39023 15 5.74023C15 4.09023 13.65 2.74023 12 2.74023C10.35 2.74023 9 4.09023 9 5.74023C9 7.39023 10.35 8.74023 12 8.74023ZM12 9.74023C10.35 9.74023 9 11.0902 9 12.7402C9 14.3902 10.35 15.7402 12 15.7402C13.65 15.7402 15 14.3902 15 12.7402C15 11.0902 13.65 9.74023 12 9.74023ZM12 16.7402C10.35 16.7402 9 18.0902 9 19.7402C9 21.3902 10.35 22.7402 12 22.7402C13.65 22.7402 15 21.3902 15 19.7402C15 18.0902 13.65 16.7402 12 16.7402Z" fill="white"/>
</svg>
