<svg width="10" height="11" viewBox="0 0 10 11" fill="none" xmlns="http://www.w3.org/2000/svg">
<path fill-rule="evenodd" clip-rule="evenodd" d="M4.30179 5.39437C4.30069 5.37976 4.30013 5.36499 4.30013 5.3501V0.683428C4.30013 0.361428 4.56088 0.100098 4.88347 0.100098C5.20605 0.100098 5.4668 0.361428 5.4668 0.683428V5.35L6.8668 4.3001C7.12463 4.10585 7.49039 4.15893 7.68347 4.41677C7.87713 4.6746 7.82464 5.04035 7.5668 5.23343L5.23347 6.98343C5.13022 7.06102 5.00655 7.1001 4.88347 7.1001C4.76622 7.1001 4.64897 7.06452 4.54805 6.99393L2.21472 5.35243C1.95105 5.16693 1.88747 4.80293 2.07297 4.53985C2.25847 4.27618 2.62188 4.2126 2.88555 4.3981L4.30179 5.39437ZM1.38347 8.26677V8.8501H8.38347V8.26677C8.38347 7.94593 8.64597 7.68343 8.96677 7.68343C9.28767 7.68343 9.55017 7.94593 9.55017 8.26677V9.4334C9.55017 9.7543 9.28767 10.0168 8.96677 10.0168H0.800127C0.479297 10.0168 0.216797 9.7543 0.216797 9.4334V8.26677C0.216797 7.94593 0.479297 7.68343 0.800127 7.68343C1.12097 7.68343 1.38347 7.94593 1.38347 8.26677Z" fill="#182CC0"/>
</svg>
