<svg width="14" height="14" viewBox="0 0 14 14" fill="none" xmlns="http://www.w3.org/2000/svg">
<path d="M13.6654 7.20492C13.6654 3.53159 10.672 0.538254 6.9987 0.538254C3.32536 0.538254 0.332031 3.53159 0.332031 7.20492C0.332031 10.8783 3.32536 13.8716 6.9987 13.8716C10.672 13.8716 13.6654 10.8783 13.6654 7.20492ZM12.2854 6.53825H10.3187C10.2587 5.03825 9.972 3.57825 9.4587 2.47159C10.9787 3.26492 12.072 4.76492 12.292 6.53825H12.2854ZM6.9987 12.5383C5.9787 12.5383 5.1387 10.5049 5.0187 7.87159H8.98536C8.86536 10.5049 8.02536 12.5383 7.00536 12.5383H6.9987ZM5.0187 6.53825C5.1387 3.90492 5.9787 1.87159 6.9987 1.87159C8.0187 1.87159 8.8587 3.90492 8.9787 6.53825H5.01203H5.0187ZM4.54536 2.47159C4.02536 3.57825 3.74536 5.03159 3.68536 6.53825H1.7187C1.9387 4.76492 3.03203 3.26492 4.55203 2.47159H4.54536ZM1.71203 7.87159H3.6787C3.7387 9.3716 4.02536 10.8316 4.5387 11.9383C3.0187 11.1449 1.92536 9.6449 1.70536 7.87159H1.71203ZM9.452 11.9383C9.972 10.8316 10.252 9.3783 10.312 7.87159H12.2787C12.0587 9.6449 10.9654 11.1449 9.4454 11.9383H9.452Z" fill="#555F62"/>
</svg>
