<svg width="165" height="33" viewBox="0 0 165 33" fill="none" xmlns="http://www.w3.org/2000/svg">
<path d="M81.7199 13.1103C79.8799 13.1103 78.6099 14.5003 78.6099 16.2003C78.6099 17.9003 79.7599 19.2903 81.7199 19.2903C83.6799 19.2903 84.8199 17.9003 84.8199 16.2003C84.8199 14.5003 83.5599 13.1103 81.7199 13.1103ZM68.3599 10.4103C71.2099 10.4103 72.9599 12.6203 72.9599 15.7903C72.9599 18.2703 72.0799 20.1703 70.4899 21.7003L68.5499 20.0703C69.4499 19.0603 70.2599 17.4903 70.2599 15.8003C70.2599 13.9903 69.3499 12.8803 68.0199 12.8803C66.6899 12.8803 65.7499 13.7403 65.7499 15.5503V18.1203H63.0399V15.5503C63.0399 13.7403 62.0999 12.8803 60.7699 12.8803C59.4399 12.8803 58.5299 13.9903 58.5299 15.8003V15.9603C58.5799 17.6003 59.3599 19.1003 60.2399 20.0803L58.2999 21.7103C56.7099 20.1803 55.8299 18.2903 55.8299 15.8103V15.6703C55.8799 12.5703 57.6099 10.4303 60.4299 10.4303C62.4199 10.4303 63.8299 11.3303 64.3899 12.6803C64.9599 11.3303 66.3599 10.4303 68.3499 10.4303L68.3599 10.4103ZM152.31 10.4103C155.79 10.4103 157.99 13.0103 157.99 16.1303C157.99 18.4703 157.22 20.2603 155.83 21.7003L153.88 20.0903C154.97 18.6903 155.29 17.4203 155.29 16.1403C155.29 14.3103 154.27 12.8703 152.32 12.8703C150.37 12.8703 149.35 14.3103 149.35 16.1403C149.35 17.4203 149.66 18.6903 150.76 20.0903L148.81 21.7003C147.42 20.2603 146.65 18.4703 146.65 16.1303C146.65 13.0203 148.85 10.4103 152.33 10.4103H152.31ZM124.49 6.09033V6.21033C124.49 7.42033 127.6 7.94033 127.6 10.3303C127.6 11.5103 126.67 12.3303 125.56 12.5803C127.46 13.1903 128.64 14.6903 128.64 16.8503C128.64 19.7203 126.49 21.8203 122.94 21.8203C120.37 21.8203 118.17 20.3803 117.6 17.9103L120.04 16.9003C120.43 18.3903 121.54 19.3503 122.94 19.3503C124.91 19.3503 125.91 18.2003 125.91 16.8003C125.91 15.1603 124.76 14.1203 122.94 14.1203H121.27V11.6703H122.79C124.1 11.6703 124.87 11.1803 124.87 10.3403C124.87 8.80033 121.76 8.76033 121.76 6.28033V6.10033H124.49V6.09033ZM86.3199 6.17033V8.62033H79.6999C78.7099 8.62033 78.3699 9.21033 78.3699 9.95033V12.0503C79.1499 10.8603 80.8499 10.5003 82.0099 10.5003C85.5099 10.5003 87.5299 13.0203 87.5299 16.2003C87.5299 19.3803 85.3499 21.9003 81.7199 21.9003C78.0899 21.9003 75.6699 19.4703 75.6699 15.7003V10.0303C75.6699 7.90033 77.1099 6.17033 79.5499 6.17033H86.3299H86.3199ZM136.74 15.0903C134.48 15.5703 133.59 17.5803 133.54 19.4703C133.6 21.6403 134.75 23.9603 137.81 23.9603C140.87 23.9603 142.02 21.6403 142.08 19.4703C142.03 17.6103 141.18 15.6503 139.01 15.1203C139.08 15.5103 139.22 16.4003 139.22 17.1103V18.3003H136.51V17.1103C136.51 16.3903 136.66 15.4603 136.73 15.0903H136.74ZM139.23 10.7003V11.2703C139.23 11.6903 139.18 12.1903 139.12 12.6003C143 13.1603 144.81 16.2503 144.81 19.4703C144.81 23.0303 142.59 26.4303 137.81 26.4303C133.03 26.4303 130.81 23.0303 130.81 19.4703C130.81 16.2203 132.66 13.1003 136.62 12.5903C136.56 12.1803 136.51 11.7003 136.51 11.2803V10.7103H139.22L139.23 10.7003ZM100.78 10.7003V10.8203C100.78 12.3103 101.93 12.6603 101.93 14.2303C101.93 15.7203 100.96 16.4703 99.5599 16.7503C101.58 17.3003 102.64 18.6803 102.64 20.9603C102.64 24.0003 100.44 26.4203 96.6399 26.4203C92.8399 26.4203 90.6599 23.8703 90.6599 20.7403V10.6903H93.3699V20.7403C93.3699 22.3903 94.4699 23.9403 96.6399 23.9403C98.8099 23.9403 99.9099 22.4903 99.9099 20.8903C99.9099 19.1103 98.7599 17.9603 96.9399 17.9603H96.4799V15.5103H97.5199C98.5599 15.5103 99.1899 14.9603 99.1899 14.1203C99.1899 12.9003 98.0399 12.6803 98.0399 10.8603V10.6803H100.77L100.78 10.7003ZM110.29 10.4103C113.6 10.4103 115.64 12.3303 115.64 15.7603V21.1503C115.64 24.2003 113.54 26.4303 110.17 26.4303C107.15 26.4303 105.04 24.7803 104.7 21.7403L107.18 21.0503C107.4 22.9803 108.49 23.9603 110.03 23.9603C112.07 23.9603 112.91 22.7003 112.91 21.1003V15.7903C112.91 14.1303 112.02 12.8703 110.29 12.8703C108.56 12.8703 107.65 14.1303 107.65 15.7903V16.7603H104.94V15.7703C104.94 12.3503 106.97 10.4203 110.29 10.4203V10.4103ZM52.5899 10.7003V13.0803C52.5899 14.7503 51.8999 15.9303 50.6099 16.5803C52.5399 17.2903 53.6899 18.8803 53.6899 21.1603C53.6899 24.2103 51.5399 26.4403 47.9899 26.4403C45.4199 26.4403 43.2199 25.0003 42.6499 22.5303L45.0899 21.5203C45.4799 23.0103 46.5899 23.9703 47.9899 23.9703C49.9599 23.9703 50.9599 22.7103 50.9599 21.1103C50.9599 19.3303 49.8099 18.1203 47.9899 18.1203H46.1999V15.6703H47.3799C49.0699 15.6703 49.8599 14.6803 49.8599 13.2903V10.7203H52.5899V10.7003Z" fill="#141719"/>
<path d="M13.9198 6.68006C14.0298 6.74006 14.1798 6.91006 14.2098 6.94006C15.6798 8.64006 18.4098 13.1401 19.5198 15.0301C20.9098 17.3901 24.0998 23.3201 24.3698 24.1001C24.3998 24.1801 24.3698 24.2801 24.2998 24.3301C24.2198 24.3801 24.1298 24.4201 23.8998 24.1801C22.6598 22.9301 19.7898 20.5001 15.0598 18.5801C14.8098 18.4801 14.5898 18.3901 14.3798 18.3001C13.7198 17.9701 13.3498 17.4801 13.1698 16.8001C12.6398 14.7901 12.2598 11.0401 12.7798 7.80006C12.7998 7.69006 12.8598 7.30006 12.9898 7.00006C13.1998 6.55006 13.5898 6.50006 13.9098 6.68006H13.9198ZM12.1398 6.24006C12.2298 6.28006 12.2998 6.34006 12.2098 6.65006C11.7398 8.35006 11.0698 12.0401 11.7598 17.0901C11.7998 17.3501 11.8298 17.5901 11.8498 17.8201C11.8898 18.5601 11.6498 19.1201 11.1598 19.6101C9.67977 21.0701 6.61977 23.2701 3.54977 24.4401C3.43977 24.4801 3.07977 24.6201 2.74977 24.6501C2.24977 24.7001 2.00977 24.3901 2.00977 24.0201C2.00977 23.8901 2.07977 23.6801 2.08977 23.6401C2.82977 21.5201 5.37977 16.9101 6.45977 15.0101C7.80977 12.6301 11.3698 6.91006 11.9098 6.28006C11.9598 6.21006 12.0598 6.18006 12.1398 6.22006V6.24006ZM14.6198 19.9401C16.6298 20.4901 20.0698 22.0301 22.6198 24.1001C22.7098 24.1701 23.0098 24.4201 23.1998 24.6801C23.4898 25.0901 23.3398 25.4501 23.0198 25.6301C22.9098 25.6901 22.6898 25.7401 22.6498 25.7501C20.4398 26.1701 15.1698 26.2801 12.9798 26.2901C10.2398 26.3101 3.48977 26.1001 2.67977 25.9501C2.58977 25.9401 2.51977 25.8701 2.50977 25.7801C2.50977 25.6801 2.50977 25.5901 2.82977 25.5101C4.53977 25.0601 8.07976 23.8001 12.1098 20.6701C12.3198 20.5101 12.5098 20.3601 12.6898 20.2301C13.3098 19.8201 13.9198 19.7501 14.5898 19.9301L14.6198 19.9401Z" fill="#141719"/>
<path d="M34.0501 1.6001H33.0601V30.9201H34.0501V1.6001Z" fill="#141719"/>
</svg>
