<svg width="166" height="33" viewBox="0 0 166 33" fill="none" xmlns="http://www.w3.org/2000/svg">
<path d="M81.72 12.85C79.88 12.85 78.61 14.24 78.61 15.94C78.61 17.64 79.76 19.03 81.72 19.03C83.68 19.03 84.82 17.64 84.82 15.94C84.82 14.24 83.56 12.85 81.72 12.85ZM68.36 10.15C71.21 10.15 72.96 12.36 72.96 15.53C72.96 18.01 72.08 19.91 70.49 21.44L68.55 19.81C69.45 18.8 70.26 17.23 70.26 15.54C70.26 13.73 69.35 12.62 68.02 12.62C66.69 12.62 65.75 13.48 65.75 15.29V17.86H63.04V15.29C63.04 13.48 62.1 12.62 60.77 12.62C59.44 12.62 58.53 13.73 58.53 15.54V15.7C58.58 17.34 59.36 18.84 60.24 19.82L58.3 21.45C56.71 19.92 55.83 18.03 55.83 15.55V15.41C55.88 12.31 57.61 10.17 60.43 10.17C62.42 10.17 63.83 11.07 64.39 12.42C64.96 11.07 66.36 10.17 68.35 10.17L68.36 10.15ZM152.31 10.15C155.79 10.15 157.99 12.75 157.99 15.87C157.99 18.21 157.22 20 155.83 21.44L153.88 19.83C154.97 18.43 155.29 17.16 155.29 15.88C155.29 14.05 154.27 12.61 152.32 12.61C150.37 12.61 149.35 14.05 149.35 15.88C149.35 17.16 149.66 18.43 150.76 19.83L148.81 21.44C147.42 20 146.65 18.21 146.65 15.87C146.65 12.76 148.85 10.15 152.33 10.15H152.31ZM124.49 5.83V5.95C124.49 7.16 127.6 7.68 127.6 10.07C127.6 11.25 126.67 12.07 125.56 12.32C127.46 12.93 128.64 14.43 128.64 16.59C128.64 19.46 126.49 21.56 122.94 21.56C120.37 21.56 118.17 20.12 117.6 17.65L120.04 16.64C120.43 18.13 121.54 19.09 122.94 19.09C124.91 19.09 125.91 17.94 125.91 16.54C125.91 14.9 124.76 13.86 122.94 13.86H121.27V11.41H122.79C124.1 11.41 124.87 10.92 124.87 10.08C124.87 8.54 121.76 8.5 121.76 6.02V5.84H124.49V5.83ZM86.32 5.91V8.36H79.7C78.71 8.36 78.37 8.95 78.37 9.69V11.79C79.15 10.6 80.85 10.24 82.01 10.24C85.51 10.24 87.53 12.76 87.53 15.94C87.53 19.12 85.35 21.64 81.72 21.64C78.09 21.64 75.67 19.21 75.67 15.44V9.77C75.67 7.64 77.11 5.91 79.55 5.91H86.33H86.32ZM136.74 14.83C134.48 15.31 133.59 17.32 133.54 19.21C133.6 21.38 134.75 23.7 137.81 23.7C140.87 23.7 142.02 21.38 142.08 19.21C142.03 17.35 141.18 15.39 139.01 14.86C139.08 15.25 139.22 16.14 139.22 16.85V18.04H136.51V16.85C136.51 16.13 136.66 15.2 136.73 14.83H136.74ZM139.23 10.44V11.01C139.23 11.43 139.18 11.93 139.12 12.34C143 12.9 144.81 15.99 144.81 19.21C144.81 22.77 142.59 26.17 137.81 26.17C133.03 26.17 130.81 22.77 130.81 19.21C130.81 15.96 132.66 12.84 136.62 12.33C136.56 11.92 136.51 11.44 136.51 11.02V10.45H139.22L139.23 10.44ZM100.78 10.44V10.56C100.78 12.05 101.93 12.4 101.93 13.97C101.93 15.46 100.96 16.21 99.56 16.49C101.58 17.04 102.64 18.42 102.64 20.7C102.64 23.74 100.44 26.16 96.64 26.16C92.84 26.16 90.66 23.61 90.66 20.48V10.43H93.37V20.48C93.37 22.13 94.47 23.68 96.64 23.68C98.81 23.68 99.91 22.23 99.91 20.63C99.91 18.85 98.76 17.7 96.94 17.7H96.48V15.25H97.52C98.56 15.25 99.19 14.7 99.19 13.86C99.19 12.64 98.04 12.42 98.04 10.6V10.42H100.77L100.78 10.44ZM110.29 10.15C113.6 10.15 115.64 12.07 115.64 15.5V20.89C115.64 23.94 113.54 26.17 110.17 26.17C107.15 26.17 105.04 24.52 104.7 21.48L107.18 20.79C107.4 22.72 108.49 23.7 110.03 23.7C112.07 23.7 112.91 22.44 112.91 20.84V15.53C112.91 13.87 112.02 12.61 110.29 12.61C108.56 12.61 107.65 13.87 107.65 15.53V16.5H104.94V15.51C104.94 12.09 106.97 10.16 110.29 10.16V10.15ZM52.59 10.44V12.82C52.59 14.49 51.9 15.67 50.61 16.32C52.54 17.03 53.69 18.62 53.69 20.9C53.69 23.95 51.54 26.18 47.99 26.18C45.42 26.18 43.22 24.74 42.65 22.27L45.09 21.26C45.48 22.75 46.59 23.71 47.99 23.71C49.96 23.71 50.96 22.45 50.96 20.85C50.96 19.07 49.81 17.86 47.99 17.86H46.2V15.41H47.38C49.07 15.41 49.86 14.42 49.86 13.03V10.46H52.59V10.44Z" fill="#555F62"/>
<path d="M13.92 6.41999C14.03 6.47999 14.18 6.64999 14.21 6.67999C15.68 8.37999 18.41 12.88 19.52 14.77C20.91 17.13 24.1 23.06 24.37 23.84C24.4 23.92 24.37 24.02 24.3 24.07C24.22 24.12 24.13 24.16 23.9 23.92C22.66 22.67 19.79 20.24 15.06 18.32C14.81 18.22 14.59 18.13 14.38 18.04C13.72 17.71 13.35 17.22 13.17 16.54C12.64 14.53 12.26 10.78 12.78 7.53999C12.8 7.42999 12.86 7.03999 12.99 6.73999C13.2 6.28999 13.59 6.23999 13.91 6.41999H13.92ZM12.14 5.97999C12.23 6.01999 12.3 6.07999 12.21 6.38999C11.74 8.08999 11.07 11.78 11.76 16.83C11.8 17.09 11.83 17.33 11.85 17.56C11.89 18.3 11.65 18.86 11.16 19.35C9.68001 20.81 6.62001 23.01 3.55001 24.18C3.44001 24.22 3.08001 24.36 2.75001 24.39C2.25001 24.44 2.01001 24.13 2.01001 23.76C2.01001 23.63 2.08001 23.42 2.09001 23.38C2.83001 21.26 5.38001 16.65 6.46001 14.75C7.81001 12.37 11.37 6.64999 11.91 6.01999C11.96 5.94999 12.06 5.91999 12.14 5.95999V5.97999ZM14.62 19.68C16.63 20.23 20.07 21.77 22.62 23.84C22.71 23.91 23.01 24.16 23.2 24.42C23.49 24.83 23.34 25.19 23.02 25.37C22.91 25.43 22.69 25.48 22.65 25.49C20.44 25.91 15.17 26.02 12.98 26.03C10.24 26.05 3.49001 25.84 2.68001 25.69C2.59001 25.68 2.52001 25.61 2.51001 25.52C2.51001 25.42 2.51001 25.33 2.83001 25.25C4.54001 24.8 8.08001 23.54 12.11 20.41C12.32 20.25 12.51 20.1 12.69 19.97C13.31 19.56 13.92 19.49 14.59 19.67L14.62 19.68Z" fill="#555F62"/>
<path d="M34.05 1.34H33.06V30.66H34.05V1.34Z" fill="#555F62"/>
</svg>
