<svg width="17" height="17" viewBox="0 0 17 17" fill="none" xmlns="http://www.w3.org/2000/svg">
<path d="M8.58984 0.840332C6.41884 0.840332 6.14584 0.850332 5.29284 0.888332C4.43984 0.928332 3.85884 1.06233 3.34984 1.26033C2.81569 1.46066 2.33198 1.77573 1.93284 2.18333C1.52524 2.58247 1.21017 3.06618 1.00984 3.60033C0.811844 4.10833 0.676844 4.69033 0.637844 5.54033C0.599844 6.39533 0.589844 6.66733 0.589844 8.84133C0.589844 11.0133 0.599844 11.2853 0.637844 12.1383C0.677844 12.9903 0.811844 13.5713 1.00984 14.0803C1.21484 14.6063 1.48784 15.0523 1.93284 15.4973C2.37684 15.9423 2.82284 16.2163 3.34884 16.4203C3.85884 16.6183 4.43884 16.7533 5.29084 16.7923C6.14484 16.8303 6.41684 16.8403 8.58984 16.8403C10.7628 16.8403 11.0338 16.8303 11.8878 16.7923C12.7388 16.7523 13.3218 16.6183 13.8308 16.4203C14.3646 16.2199 14.848 15.9048 15.2468 15.4973C15.6918 15.0523 15.9648 14.6063 16.1698 14.0803C16.3668 13.5713 16.5018 12.9903 16.5418 12.1383C16.5798 11.2853 16.5898 11.0133 16.5898 8.84033C16.5898 6.66733 16.5798 6.39533 16.5418 5.54133C16.5018 4.69033 16.3668 4.10833 16.1698 3.60033C15.9695 3.06618 15.6544 2.58247 15.2468 2.18333C14.8477 1.77573 14.364 1.46066 13.8298 1.26033C13.3198 1.06233 12.7378 0.927332 11.8868 0.888332C11.0328 0.850332 10.7618 0.840332 8.58784 0.840332H8.58984ZM7.87284 2.28233H8.59084C10.7268 2.28233 10.9798 2.28933 11.8228 2.32833C12.6028 2.36333 13.0268 2.49433 13.3088 2.60333C13.6818 2.74833 13.9488 2.92233 14.2288 3.20233C14.5088 3.48233 14.6818 3.74833 14.8268 4.12233C14.9368 4.40333 15.0668 4.82733 15.1018 5.60733C15.1408 6.45033 15.1488 6.70333 15.1488 8.83833C15.1488 10.9733 15.1408 11.2273 15.1018 12.0703C15.0668 12.8503 14.9358 13.2733 14.8268 13.5553C14.6977 13.9022 14.4931 14.2161 14.2278 14.4743C13.9478 14.7543 13.6818 14.9273 13.3078 15.0723C13.0278 15.1823 12.6038 15.3123 11.8228 15.3483C10.9798 15.3863 10.7268 15.3953 8.59084 15.3953C6.45484 15.3953 6.20084 15.3863 5.35784 15.3483C4.57784 15.3123 4.15484 15.1823 3.87284 15.0723C3.52568 14.9436 3.21144 14.7393 2.95284 14.4743C2.68712 14.2159 2.48217 13.9017 2.35284 13.5543C2.24384 13.2733 2.11284 12.8493 2.07784 12.0693C2.03984 11.2263 2.03184 10.9733 2.03184 8.83633C2.03184 6.69933 2.03984 6.44833 2.07784 5.60533C2.11384 4.82533 2.24384 4.40133 2.35384 4.11933C2.49884 3.74633 2.67284 3.47933 2.95284 3.19933C3.23284 2.91933 3.49884 2.74633 3.87284 2.60133C4.15484 2.49133 4.57784 2.36133 5.35784 2.32533C6.09584 2.29133 6.38184 2.28133 7.87284 2.28033V2.28233ZM12.8608 3.61033C12.7348 3.61033 12.6099 3.63516 12.4935 3.68341C12.377 3.73165 12.2712 3.80237 12.182 3.89151C12.0929 3.98065 12.0222 4.08648 11.9739 4.20296C11.9257 4.31943 11.9008 4.44426 11.9008 4.57033C11.9008 4.6964 11.9257 4.82124 11.9739 4.93771C12.0222 5.05418 12.0929 5.16001 12.182 5.24915C12.2712 5.3383 12.377 5.40901 12.4935 5.45726C12.6099 5.5055 12.7348 5.53033 12.8608 5.53033C13.1155 5.53033 13.3596 5.42919 13.5397 5.24915C13.7197 5.06912 13.8208 4.82494 13.8208 4.57033C13.8208 4.31572 13.7197 4.07154 13.5397 3.89151C13.3596 3.71147 13.1155 3.61033 12.8608 3.61033ZM8.59084 4.73233C8.04591 4.72383 7.50474 4.82382 6.99882 5.02647C6.49291 5.22913 6.03236 5.5304 5.64399 5.91276C5.25563 6.29511 4.94721 6.7509 4.73668 7.25359C4.52616 7.75629 4.41774 8.29584 4.41774 8.84083C4.41774 9.38583 4.52616 9.92538 4.73668 10.4281C4.94721 10.9308 5.25563 11.3866 5.64399 11.7689C6.03236 12.1513 6.49291 12.4525 6.99882 12.6552C7.50474 12.8578 8.04591 12.9578 8.59084 12.9493C9.66938 12.9325 10.6981 12.4922 11.4548 11.7236C12.2116 10.9549 12.6357 9.9195 12.6357 8.84083C12.6357 7.76216 12.2116 6.72674 11.4548 5.95808C10.6981 5.18942 9.66938 4.74916 8.59084 4.73233ZM8.59084 6.17333C8.94108 6.17333 9.28789 6.24232 9.61146 6.37635C9.93504 6.51037 10.229 6.70682 10.4767 6.95448C10.7244 7.20213 10.9208 7.49614 11.0548 7.81972C11.1889 8.14329 11.2578 8.4901 11.2578 8.84033C11.2578 9.19057 11.1889 9.53737 11.0548 9.86095C10.9208 10.1845 10.7244 10.4785 10.4767 10.7262C10.229 10.9738 9.93504 11.1703 9.61146 11.3043C9.28789 11.4383 8.94108 11.5073 8.59084 11.5073C7.88351 11.5073 7.20515 11.2263 6.70499 10.7262C6.20483 10.226 5.92384 9.54766 5.92384 8.84033C5.92384 8.133 6.20483 7.45464 6.70499 6.95448C7.20515 6.45432 7.88351 6.17333 8.59084 6.17333Z" fill="#555F62"/>
</svg>
