<svg width="12" height="14" viewBox="0 0 12 14" fill="none" xmlns="http://www.w3.org/2000/svg">
<path fill-rule="evenodd" clip-rule="evenodd" d="M0.757812 5.46706C0.757812 2.55439 3.15048 0.185059 6.09114 0.185059C9.03184 0.185059 11.4244 2.55439 11.4244 5.46706C11.4244 9.11643 6.72514 13.1864 6.52514 13.3577C6.39981 13.465 6.24581 13.5184 6.09114 13.5184C5.93648 13.5184 5.78248 13.465 5.65714 13.3577C5.45714 13.1864 0.757812 9.11643 0.757812 5.46706ZM6.09114 7.51839C4.80448 7.51839 3.75781 6.47172 3.75781 5.18506C3.75781 3.89839 4.80448 2.85173 6.09114 2.85173C7.37781 2.85173 8.42444 3.89839 8.42444 5.18506C8.42444 6.47172 7.37781 7.51839 6.09114 7.51839ZM6.09114 4.18506C5.53981 4.18506 5.09114 4.63373 5.09114 5.18506C5.09114 5.73639 5.53981 6.18506 6.09114 6.18506C6.64248 6.18506 7.09114 5.73639 7.09114 5.18506C7.09114 4.63373 6.64248 4.18506 6.09114 4.18506Z" fill="#555F62"/>
</svg>
