<svg width="16" height="16" viewBox="0 0 16 16" fill="none" xmlns="http://www.w3.org/2000/svg">
<path d="M10.6885 14.3182C5.0272 14.3182 0.421875 9.71283 0.421875 4.05153C0.421875 2.36019 1.79788 0.984863 3.48855 0.984863C3.66188 0.984863 3.8332 0.999533 3.9992 1.02819C4.1612 1.05419 4.32454 1.09553 4.48254 1.15019C4.69987 1.22553 4.86254 1.40753 4.91387 1.63153L5.8272 5.60753C5.8772 5.82619 5.81387 6.05553 5.65854 6.21819C5.5672 6.31286 5.56521 6.31486 4.73855 6.74753C5.40788 8.19686 6.5712 9.35619 7.99187 10.0028C8.42454 9.17553 8.4272 9.17286 8.52187 9.08219C8.6852 8.92619 8.91521 8.86553 9.13324 8.91353L13.1092 9.82623C13.3325 9.87753 13.5145 10.0402 13.5898 10.2568C13.6445 10.4142 13.6852 10.5768 13.7125 10.7442C13.7405 10.9088 13.7552 11.0795 13.7552 11.2515C13.7552 12.9428 12.3798 14.3182 10.6885 14.3182Z" fill="#555F62"/>
</svg>
