<svg width="68" height="17" viewBox="0 0 68 17" fill="none" xmlns="http://www.w3.org/2000/svg">
<g clip-path="url(#clip0_1_1278)">
<path d="M34.1418 9.17256C32.7613 9.17256 31.636 10.2244 31.636 11.6732C31.636 13.1131 32.7613 14.1738 34.1418 14.1738C35.523 14.1738 36.6482 13.1131 36.6482 11.6732C36.6476 10.2244 35.5224 9.17256 34.1418 9.17256ZM34.1418 13.1896C33.3852 13.1896 32.7331 12.5646 32.7331 11.6738C32.7331 10.7736 33.3858 10.158 34.1418 10.158C34.8984 10.158 35.5506 10.7736 35.5506 11.6738C35.5506 12.564 34.8984 13.1896 34.1418 13.1896ZM28.6747 9.17256C27.2942 9.17256 26.1689 10.2244 26.1689 11.6732C26.1689 13.1131 27.2942 14.1738 28.6747 14.1738C30.0559 14.1738 31.1811 13.1131 31.1811 11.6732C31.1811 10.2244 30.0559 9.17256 28.6747 9.17256ZM28.6747 13.1896C27.9181 13.1896 27.266 12.5646 27.266 11.6738C27.266 10.7736 27.9187 10.158 28.6747 10.158C29.4313 10.158 30.0835 10.7736 30.0835 11.6738C30.0841 12.564 29.4313 13.1896 28.6747 13.1896ZM22.1722 9.94045V11.0011H24.7068C24.631 11.5979 24.4326 12.0336 24.1298 12.3364C23.7611 12.7057 23.1841 13.1131 22.1722 13.1131C20.612 13.1131 19.3923 11.8531 19.3923 10.2903C19.3923 8.72747 20.612 7.46744 22.1722 7.46744C23.0139 7.46744 23.6285 7.79906 24.0822 8.22534L24.8294 7.47685C24.1955 6.87065 23.3544 6.40674 22.1722 6.40674C20.035 6.40674 18.2383 8.14949 18.2383 10.2903C18.2383 12.4311 20.035 14.1738 22.1722 14.1738C23.3256 14.1738 24.1961 13.7946 24.8764 13.0843C25.5761 12.3835 25.7938 11.398 25.7938 10.6025C25.7938 10.3567 25.7751 10.1292 25.7369 9.93987L22.1722 9.94045ZM48.7669 10.7642C48.5591 10.2056 47.9252 9.17256 46.6298 9.17256C45.3437 9.17256 44.2748 10.1862 44.2748 11.6732C44.2748 13.0749 45.3343 14.1738 46.7524 14.1738C47.8965 14.1738 48.5586 13.473 48.8333 13.0655L47.9821 12.4969C47.6986 12.9138 47.3106 13.1884 46.7524 13.1884C46.1948 13.1884 45.7974 12.9326 45.5421 12.4305L48.8802 11.0476L48.7669 10.7642ZM45.3625 11.5979C45.3343 10.6313 46.1097 10.1392 46.6679 10.1392C47.1029 10.1392 47.4715 10.3573 47.5947 10.6695L45.3625 11.5979ZM42.6489 14.0227H43.7454V6.6725H42.6489V14.0227ZM40.8516 9.73172H40.814C40.568 9.43774 40.0949 9.17256 39.4998 9.17256C38.2512 9.17256 37.1072 10.2715 37.1072 11.6832C37.1072 13.0849 38.2512 14.1744 39.4998 14.1744C40.0955 14.1744 40.568 13.9093 40.814 13.6064H40.8516V13.9663C40.8516 14.9229 40.3409 15.4345 39.5185 15.4345C38.847 15.4345 38.4309 14.9517 38.2606 14.5443L37.3056 14.9423C37.5798 15.605 38.3076 16.4199 39.5185 16.4199C40.8046 16.4199 41.8923 15.662 41.8923 13.8146V9.32485H40.8521L40.8516 9.73172ZM39.5943 13.1896C38.8376 13.1896 38.2043 12.5546 38.2043 11.6832C38.2043 10.8018 38.8376 10.158 39.5943 10.158C40.3409 10.158 40.9273 10.8018 40.9273 11.6832C40.9273 12.5546 40.3409 13.1896 39.5943 13.1896ZM53.9053 6.6725H51.281V14.0227H52.3757V11.2381H53.9047C55.1186 11.2381 56.3125 10.3579 56.3125 8.9556C56.3125 7.55328 55.1192 6.6725 53.9053 6.6725ZM53.9335 10.215H52.3757V7.69557H53.9335C54.7523 7.69557 55.2172 8.37468 55.2172 8.9556C55.2172 9.52476 54.7523 10.215 53.9335 10.215ZM60.7025 9.15963C59.9095 9.15963 59.0883 9.50947 58.7485 10.285L59.7205 10.6913C59.9283 10.285 60.3157 10.1521 60.7213 10.1521C61.2877 10.1521 61.8636 10.4925 61.873 11.0976V11.1734C61.6746 11.0599 61.2496 10.89 60.7307 10.89C59.6829 10.89 58.6158 11.4668 58.6158 12.5446C58.6158 13.5282 59.4752 14.1615 60.4378 14.1615C61.1739 14.1615 61.5801 13.8305 61.8348 13.4424H61.8724V14.0098H62.9301V11.1916C62.9307 9.88754 61.9575 9.15963 60.7025 9.15963ZM60.5699 13.1878C60.2118 13.1878 59.7111 13.0079 59.7111 12.5634C59.7111 11.996 60.3345 11.7784 60.8727 11.7784C61.3535 11.7784 61.5806 11.8825 61.873 12.0242C61.7878 12.7057 61.2026 13.1878 60.5699 13.1878ZM66.7818 9.32014L65.5263 12.5069H65.4887L64.1856 9.32014H63.0058L64.9599 13.774L63.8458 16.2517H64.988L67.9998 9.32014H66.7818ZM56.9171 14.0227H58.0118V6.6725H56.9171V14.0227Z" fill="#141719"/>
<path d="M21.9786 2.40614C21.9786 2.89886 21.833 3.29104 21.5413 3.58385C21.2102 3.93193 20.7782 4.10597 20.2476 4.10597C19.7393 4.10597 19.3067 3.92957 18.9515 3.57679C18.5958 3.22342 18.418 2.78597 18.418 2.26385C18.418 1.74114 18.5958 1.30369 18.9515 0.950906C19.3067 0.597534 19.7393 0.421143 20.2476 0.421143C20.5 0.421143 20.7412 0.470532 20.9701 0.568724C21.1997 0.667503 21.3834 0.798621 21.5207 0.962666L21.2114 1.27312C20.9784 0.993828 20.6573 0.854479 20.247 0.854479C19.876 0.854479 19.5555 0.985009 19.2849 1.24607C19.0143 1.50713 18.8793 1.84639 18.8793 2.26326C18.8793 2.68013 19.0143 3.01939 19.2849 3.28045C19.5555 3.54151 19.876 3.67204 20.247 3.67204C20.6403 3.67204 20.9684 3.54092 21.2308 3.2781C21.401 3.107 21.4996 2.86887 21.526 2.56371H20.247V2.13978H21.9533C21.9709 2.2321 21.9786 2.32088 21.9786 2.40614Z" fill="#141719"/>
<path d="M24.6846 0.932603H23.081V2.05093H24.5273V2.47486H23.081V3.59319H24.6846V4.02711H22.6284V0.499268H24.6846V0.932603Z" fill="#141719"/>
<path d="M26.5926 4.02711H26.14V0.932603H25.1562V0.499268H27.5764V0.932603H26.5926V4.02711Z" fill="#141719"/>
<path d="M29.3276 4.02711V0.499268H29.7801V4.02711H29.3276Z" fill="#141719"/>
<path d="M31.7869 4.02711H31.3343V0.932603H30.3506V0.499268H32.7707V0.932603H31.7869V4.02711Z" fill="#141719"/>
<path d="M37.352 3.57146C37.0057 3.92777 36.5754 4.10592 36.0606 4.10592C35.5459 4.10592 35.1156 3.92777 34.7699 3.57146C34.4236 3.21514 34.251 2.77887 34.251 2.26322C34.251 1.74756 34.4236 1.31129 34.7699 0.954977C35.1156 0.598666 35.5459 0.419922 36.0606 0.419922C36.5725 0.419922 37.0022 0.599254 37.3497 0.957329C37.6971 1.3154 37.8709 1.7505 37.8709 2.26322C37.8709 2.77887 37.6977 3.21514 37.352 3.57146ZM35.1039 3.27571C35.3645 3.54029 35.6832 3.672 36.0606 3.672C36.4381 3.672 36.7574 3.53971 37.0174 3.27571C37.278 3.01112 37.4089 2.67362 37.4089 2.26322C37.4089 1.85281 37.278 1.51531 37.0174 1.25073C36.7574 0.98614 36.4381 0.854434 36.0606 0.854434C35.6832 0.854434 35.3645 0.986728 35.1039 1.25073C34.8438 1.51531 34.713 1.85281 34.713 2.26322C34.713 2.67362 34.8438 3.01112 35.1039 3.27571Z" fill="#141719"/>
<path d="M38.5059 4.02711V0.499268H39.0565L40.7681 3.24334H40.7875L40.7681 2.56365V0.499268H41.2207V4.02711H40.7482L38.9573 1.14957H38.9379L38.9573 1.82927V4.02711H38.5059Z" fill="#141719"/>
<g filter="url(#filter0_dd_1_1278)">
<path d="M0.271771 0.815627C0.10096 0.996723 0 1.27777 0 1.64173V14.6453C0 15.0099 0.10096 15.2904 0.271771 15.4715L0.315207 15.5138L7.58726 8.22938V8.14353V8.05769L0.315207 0.772705L0.271771 0.815627Z" fill="url(#paint0_linear_1_1278)"/>
<path d="M10.0096 10.658L7.58594 8.22917V8.14332V8.05748L10.0102 5.62915L10.0647 5.66031L12.9368 7.29488C13.7568 7.76173 13.7568 8.52551 12.9368 8.99294L10.0647 10.6275L10.0096 10.658Z" fill="url(#paint1_linear_1_1278)"/>
<g filter="url(#filter1_d_1_1278)">
<path d="M10.0638 10.6269L7.58443 8.14331L0.269531 15.4712C0.53954 15.7582 0.986229 15.7935 1.48927 15.5077L10.0638 10.6269Z" fill="url(#paint2_linear_1_1278)"/>
</g>
<path d="M10.0638 5.65981L1.48927 0.779635C0.986229 0.493292 0.53954 0.529158 0.269531 0.816089L7.58502 8.144L10.0638 5.65981Z" fill="url(#paint3_linear_1_1278)"/>
</g>
</g>
<defs>
<filter id="filter0_dd_1_1278" x="0" y="0.432031" width="13.5518" height="15.423" filterUnits="userSpaceOnUse" color-interpolation-filters="sRGB">
<feFlood flood-opacity="0" result="BackgroundImageFix"/>
<feColorMatrix in="SourceAlpha" type="matrix" values="0 0 0 0 0 0 0 0 0 0 0 0 0 0 0 0 0 0 127 0" result="hardAlpha"/>
<feOffset dy="-0.15"/>
<feComposite in2="hardAlpha" operator="out"/>
<feColorMatrix type="matrix" values="0 0 0 0 0 0 0 0 0 0 0 0 0 0 0 0 0 0 0.12 0"/>
<feBlend mode="normal" in2="BackgroundImageFix" result="effect1_dropShadow_1_1278"/>
<feColorMatrix in="SourceAlpha" type="matrix" values="0 0 0 0 0 0 0 0 0 0 0 0 0 0 0 0 0 0 127 0" result="hardAlpha"/>
<feOffset dy="0.15"/>
<feComposite in2="hardAlpha" operator="out"/>
<feColorMatrix type="matrix" values="0 0 0 0 1 0 0 0 0 1 0 0 0 0 1 0 0 0 0.25 0"/>
<feBlend mode="normal" in2="effect1_dropShadow_1_1278" result="effect2_dropShadow_1_1278"/>
<feBlend mode="normal" in="SourceGraphic" in2="effect2_dropShadow_1_1278" result="shape"/>
</filter>
<filter id="filter1_d_1_1278" x="0.269531" y="7.99331" width="9.79443" height="7.71177" filterUnits="userSpaceOnUse" color-interpolation-filters="sRGB">
<feFlood flood-opacity="0" result="BackgroundImageFix"/>
<feColorMatrix in="SourceAlpha" type="matrix" values="0 0 0 0 0 0 0 0 0 0 0 0 0 0 0 0 0 0 127 0" result="hardAlpha"/>
<feOffset dy="-0.15"/>
<feComposite in2="hardAlpha" operator="out"/>
<feColorMatrix type="matrix" values="0 0 0 0 0 0 0 0 0 0 0 0 0 0 0 0 0 0 0.08 0"/>
<feBlend mode="normal" in2="BackgroundImageFix" result="effect1_dropShadow_1_1278"/>
<feBlend mode="normal" in="SourceGraphic" in2="effect1_dropShadow_1_1278" result="shape"/>
</filter>
<linearGradient id="paint0_linear_1_1278" x1="6.94264" y1="1.50414" x2="-2.92471" y2="11.3548" gradientUnits="userSpaceOnUse">
<stop stop-color="#00A0FF"/>
<stop offset="0.0066" stop-color="#00A1FF"/>
<stop offset="0.2601" stop-color="#00BEFF"/>
<stop offset="0.5122" stop-color="#00D2FF"/>
<stop offset="0.7604" stop-color="#00DFFF"/>
<stop offset="1" stop-color="#00E3FF"/>
</linearGradient>
<linearGradient id="paint1_linear_1_1278" x1="14.0042" y1="8.14332" x2="-0.198197" y2="8.14332" gradientUnits="userSpaceOnUse">
<stop stop-color="#FFE000"/>
<stop offset="0.4087" stop-color="#FFBD00"/>
<stop offset="0.7754" stop-color="#FFA500"/>
<stop offset="1" stop-color="#FF9C00"/>
</linearGradient>
<linearGradient id="paint2_linear_1_1278" x1="8.71736" y1="9.49206" x2="-4.66401" y2="22.8508" gradientUnits="userSpaceOnUse">
<stop stop-color="#FF3A44"/>
<stop offset="1" stop-color="#C31162"/>
</linearGradient>
<linearGradient id="paint3_linear_1_1278" x1="-1.57275" y1="-3.51269" x2="4.4024" y2="2.45234" gradientUnits="userSpaceOnUse">
<stop stop-color="#32A071"/>
<stop offset="0.0685" stop-color="#2DA771"/>
<stop offset="0.4762" stop-color="#15CF74"/>
<stop offset="0.8009" stop-color="#06E775"/>
<stop offset="1" stop-color="#00F076"/>
</linearGradient>
<clipPath id="clip0_1_1278">
<rect width="68" height="16" fill="white" transform="translate(0 0.419922)"/>
</clipPath>
</defs>
</svg>
