<svg width="16" height="16" viewBox="0 0 16 16" fill="none" xmlns="http://www.w3.org/2000/svg">
<path d="M9.7987 3.36675L14.4654 8.03341C14.732 8.30008 14.732 8.70008 14.4654 8.96675L9.7987 13.6334C9.53203 13.9001 9.13203 13.9001 8.86537 13.6334C8.5987 13.3667 8.5987 12.9667 8.86537 12.7001L12.3987 9.16675H1.9987C1.5987 9.16675 1.33203 8.90008 1.33203 8.50008C1.33203 8.10008 1.5987 7.83341 1.9987 7.83341H12.3987L8.86537 4.30008C8.73203 4.16675 8.66536 4.03341 8.66536 3.83341C8.66536 3.63341 8.73203 3.50008 8.86537 3.36675C9.13203 3.10008 9.53203 3.10008 9.7987 3.36675Z" fill="#182CC0"/>
</svg>
