<svg width="14" height="11" viewBox="0 0 14 11" fill="none" xmlns="http://www.w3.org/2000/svg">
<path d="M8.7987 0.366751L13.4654 5.03341C13.732 5.30008 13.732 5.70008 13.4654 5.96675L8.7987 10.6334C8.53203 10.9001 8.13203 10.9001 7.86537 10.6334C7.5987 10.3667 7.5987 9.9667 7.86537 9.7001L11.3987 6.16675H0.998701C0.598701 6.16675 0.332031 5.90008 0.332031 5.50008C0.332031 5.10008 0.598701 4.83341 0.998701 4.83341H11.3987L7.86537 1.30008C7.73203 1.16675 7.66536 1.03341 7.66536 0.833411C7.66536 0.633411 7.73203 0.500081 7.86537 0.366751C8.13203 0.100081 8.53203 0.100081 8.7987 0.366751Z" fill="#182CC0"/>
</svg>
