<svg width="23" height="22" viewBox="0 0 23 22" fill="none" xmlns="http://www.w3.org/2000/svg">
<path d="M11.92 1.41999C12.03 1.47999 12.18 1.64999 12.21 1.67999C13.68 3.37999 16.41 7.87999 17.52 9.76999C18.91 12.13 22.1 18.06 22.37 18.84C22.4 18.92 22.37 19.02 22.3 19.07C22.22 19.12 22.13 19.16 21.9 18.92C20.66 17.67 17.79 15.24 13.06 13.32C12.81 13.22 12.59 13.13 12.38 13.04C11.72 12.71 11.35 12.22 11.17 11.54C10.64 9.52999 10.26 5.77999 10.78 2.53999C10.8 2.42999 10.86 2.03999 10.99 1.73999C11.2 1.28999 11.59 1.23999 11.91 1.41999H11.92ZM10.14 0.979994C10.23 1.01999 10.3 1.07999 10.21 1.38999C9.74001 3.08999 9.07001 6.77999 9.76001 11.83C9.80001 12.09 9.83001 12.33 9.85001 12.56C9.89001 13.3 9.65001 13.86 9.16001 14.35C7.68001 15.81 4.62001 18.01 1.55001 19.18C1.44001 19.22 1.08001 19.36 0.75001 19.39C0.25001 19.44 0.0100098 19.13 0.0100098 18.76C0.0100098 18.63 0.0800097 18.42 0.0900097 18.38C0.83001 16.26 3.38001 11.65 4.46001 9.74999C5.81001 7.36999 9.37001 1.64999 9.91001 1.01999C9.96001 0.949994 10.06 0.919994 10.14 0.959994V0.979994ZM12.62 14.68C14.63 15.23 18.07 16.77 20.62 18.84C20.71 18.91 21.01 19.16 21.2 19.42C21.49 19.83 21.34 20.19 21.02 20.37C20.91 20.43 20.69 20.48 20.65 20.49C18.44 20.91 13.17 21.02 10.98 21.03C8.24001 21.05 1.49001 20.84 0.68001 20.69C0.59001 20.68 0.52001 20.61 0.51001 20.52C0.51001 20.42 0.51001 20.33 0.83001 20.25C2.54001 19.8 6.08001 18.54 10.11 15.41C10.32 15.25 10.51 15.1 10.69 14.97C11.31 14.56 11.92 14.49 12.59 14.67L12.62 14.68Z" fill="#555F62"/>
</svg>
