<svg width="45" height="41" viewBox="0 0 45 41" fill="none" xmlns="http://www.w3.org/2000/svg">
<path d="M15.8154 19.4308C15.8263 19.534 15.8325 19.6527 15.8325 19.7729C15.8325 20.7686 15.4065 21.6657 14.7261 22.2976L14.7246 22.2992C11.2681 25.4836 7.20468 28.0807 2.73238 29.8949L2.4671 29.9904C2.09727 30.1415 1.66502 30.2601 1.21717 30.3249L1.18752 30.328C1.1251 30.3418 1.05332 30.3495 0.979974 30.3495C0.438492 30.3495 0 29.9164 0 29.3816C0 29.3616 0 29.34 0.00156047 29.3199V29.323C0.0187256 29.1042 0.0639792 28.8992 0.13264 28.708L0.127958 28.725C1.32952 25.3448 5.39922 18.0035 7.15475 14.9779C9.33784 11.1877 15.0632 2.06921 15.9168 1.06888C15.973 0.996435 16.0588 0.950195 16.1571 0.950195C16.2055 0.950195 16.2523 0.960985 16.2929 0.982563L16.2913 0.981022C16.4333 1.04884 16.5503 1.1367 16.4068 1.64225C15.6577 4.34421 14.5717 10.229 15.6952 18.2748C15.7529 18.6909 15.8169 19.0716 15.8169 19.4308H15.8154Z" fill="#141719"/>
<path d="M17.2184 23.295C17.7802 22.9004 18.4809 22.6646 19.2377 22.6646C19.6106 22.6646 19.9695 22.7216 20.3066 22.8279L20.2816 22.8218C25.2174 24.3354 29.5024 26.5996 33.2445 29.5142L33.1602 29.451C33.5128 29.7254 33.8218 30.029 34.0902 30.3666L34.0996 30.3773C34.2572 30.5499 34.3539 30.7781 34.3539 31.0294C34.3539 31.4054 34.137 31.7322 33.8203 31.8941L33.814 31.8971C33.6439 31.9788 33.4457 32.0451 33.2382 32.0821L33.2242 32.0836C29.6663 32.7495 21.1773 32.922 17.6569 32.9482C13.2439 32.9791 2.39551 32.6416 1.08159 32.4274C0.939588 32.4073 0.828795 32.2933 0.817871 32.153V32.1515C0.817871 31.9958 0.817871 31.854 1.34531 31.7245C4.09173 31.0109 9.77964 28.9964 16.2853 24.0179C16.6177 23.7373 16.9173 23.4969 17.2184 23.2934V23.295Z" fill="#141719"/>
<path d="M19.9176 20.1797C18.9392 19.7235 18.2198 18.8635 17.9717 17.8231L17.967 17.7999C17.321 15.1488 16.9512 12.1063 16.9512 8.97739C16.9512 7.03223 17.0947 5.12098 17.3709 3.25288L17.3444 3.46559C17.4115 2.99394 17.5317 2.56699 17.7002 2.16625L17.6877 2.20015C17.8188 1.80404 18.1902 1.52197 18.6271 1.52197C18.8268 1.52197 19.0125 1.58054 19.167 1.68073L19.1639 1.67919C19.3371 1.80095 19.4869 1.93659 19.6196 2.08764L19.6227 2.09072C21.9852 4.80346 26.3811 11.9845 28.1631 14.9731C30.393 18.7324 35.5441 28.1839 35.9764 29.4231C35.9904 29.457 35.9998 29.4971 35.9998 29.5387C35.9998 29.642 35.9467 29.7329 35.8672 29.7884H35.8656C35.7345 29.8763 35.6019 29.9287 35.2336 29.5587C33.2144 27.5689 28.6172 23.6955 21.0053 20.6329C20.6042 20.4772 20.2469 20.3354 19.9192 20.1797H19.9176Z" fill="#141719"/>
</svg>
