<svg width="36" height="33" viewBox="0 0 36 33" fill="none" xmlns="http://www.w3.org/2000/svg">
<path d="M15.8154 18.9806C15.8263 19.0838 15.8325 19.2025 15.8325 19.3227C15.8325 20.3184 15.4065 21.2155 14.7261 21.8474L14.7246 21.849C11.2681 25.0334 7.20468 27.6305 2.73238 29.4447L2.4671 29.5402C2.09727 29.6913 1.66502 29.8099 1.21717 29.8747L1.18752 29.8778C1.1251 29.8916 1.05332 29.8993 0.979974 29.8993C0.438492 29.8993 0 29.4662 0 28.9314C0 28.9114 0 28.8898 0.00156047 28.8697V28.8728C0.0187256 28.654 0.0639792 28.449 0.13264 28.2578L0.127958 28.2748C1.32952 24.8946 5.39922 17.5533 7.15475 14.5277C9.33784 10.7375 15.0632 1.61901 15.9168 0.618682C15.973 0.54624 16.0588 0.5 16.1571 0.5C16.2055 0.5 16.2523 0.510789 16.2929 0.532368L16.2913 0.530827C16.4333 0.598645 16.5503 0.686501 16.4068 1.19206C15.6577 3.89401 14.5717 9.77881 15.6952 17.8246C15.7529 18.2407 15.8169 18.6214 15.8169 18.9806H15.8154Z" fill="#555F62"/>
<path d="M17.2184 22.8447C17.7802 22.4501 18.4809 22.2143 19.2377 22.2143C19.6106 22.2143 19.9695 22.2713 20.3066 22.3776L20.2816 22.3715C25.2174 23.8851 29.5024 26.1493 33.2445 29.0639L33.1602 29.0007C33.5128 29.2751 33.8218 29.5787 34.0902 29.9163L34.0996 29.9271C34.2572 30.0997 34.3539 30.3278 34.3539 30.5791C34.3539 30.9552 34.137 31.2819 33.8203 31.4438L33.814 31.4468C33.6439 31.5285 33.4457 31.5948 33.2382 31.6318L33.2242 31.6333C29.6663 32.2992 21.1773 32.4718 17.6569 32.498C13.2439 32.5289 2.39551 32.1913 1.08159 31.9771C0.939588 31.957 0.828795 31.843 0.817871 31.7027V31.7012C0.817871 31.5455 0.817871 31.4037 1.34531 31.2742C4.09173 30.5606 9.77964 28.5461 16.2853 23.5676C16.6177 23.287 16.9173 23.0466 17.2184 22.8431V22.8447Z" fill="#555F62"/>
<path d="M19.9176 19.7296C18.9392 19.2734 18.2198 18.4134 17.9717 17.373L17.967 17.3498C17.321 14.6987 16.9512 11.6562 16.9512 8.52726C16.9512 6.5821 17.0947 4.67085 17.3709 2.80275L17.3444 3.01546C17.4115 2.54381 17.5317 2.11686 17.7002 1.71612L17.6877 1.75002C17.8188 1.3539 18.1902 1.07184 18.6271 1.07184C18.8268 1.07184 19.0125 1.13041 19.167 1.2306L19.1639 1.22905C19.3371 1.35082 19.4869 1.48646 19.6196 1.63751L19.6227 1.64059C21.9852 4.35333 26.3811 11.5344 28.1631 14.523C30.393 18.2823 35.5441 27.7338 35.9764 28.973C35.9904 29.0069 35.9998 29.047 35.9998 29.0886C35.9998 29.1919 35.9467 29.2828 35.8672 29.3383H35.8656C35.7345 29.4262 35.6019 29.4786 35.2336 29.1086C33.2144 27.1188 28.6172 23.2454 21.0053 20.1828C20.6042 20.0271 20.2469 19.8853 19.9192 19.7296H19.9176Z" fill="#555F62"/>
</svg>
